<?xml version="1.0" encoding="utf-8"?>
<!-- Generator: Adobe Illustrator 27.0.0, SVG Export Plug-In . SVG Version: 6.00 Build 0)  -->
<svg version="1.1" id="Layer_1" xmlns="http://www.w3.org/2000/svg" xmlns:xlink="http://www.w3.org/1999/xlink" x="0px" y="0px"
	 viewBox="0 0 1000 1000" style="enable-background:new 0 0 1000 1000;" xml:space="preserve">
<style type="text/css">
	.st0{fill:#2B4F3F;}
	.st1{fill:#F3C464;}
</style>
<g id="layer1_5_" transform="translate(-328.281, -458.909)">
	<g id="g8018" transform="translate(-366.746, 141.637)">
		<path id="path7686" class="st0" d="M1195,359.6c-54.6,151.7-152.5,282.8-278.8,378.4v350.2c1.9,2.9,4,5.6,6,8.4
			c60.8,84.5,159.8,139.7,271.7,139.7c0.4,0,0.7,0,1.1,0c0.4,0,0.7,0,1.1,0c111.9,0,210.9-55.2,271.7-139.7c2-2.8,4-5.5,6-8.4V738
			C1347.5,642.4,1249.7,511.4,1195,359.6z"/>
		<path id="path7688" class="st1" d="M1195,777.3c-71.4,78.6-154.6,146.1-246.9,199.9l-0.2,92.7c53.9,77.6,143.6,128.5,245.2,128.5
			c103.9,0,195.5-53.2,249-133.9l-0.2-87.3C1349.7,923.4,1266.4,855.9,1195,777.3z M1195,861.4c62,60.9,131,114.5,205.9,159.4
			c-41.7,71.4-119.2,119.3-207.7,119.3c-87.8,0-164.7-47.3-206.6-117.7C1062.5,977.3,1132.3,923,1195,861.4z"/>
		<path id="path7690" class="st1" d="M1195,457.7c-58.5,118.1-143.4,220.9-246.9,300.6v76.5c97.6-67.6,181.7-153.7,246.9-253
			c65.2,99.4,149.3,185.4,246.9,253v-76.5C1338.4,678.6,1253.5,575.8,1195,457.7z"/>
		<path id="path7692" class="st1" d="M1195,634.9c-67.3,92.8-151.1,173-246.9,236.3v69.2c93.3-56.7,176.6-128.2,246.9-211.1
			c70.3,82.9,153.6,154.4,246.9,211.1v-69.2C1346.1,807.8,1262.4,727.7,1195,634.9z"/>
	</g>
</g>
</svg>
