<?xml version="1.0" encoding="utf-8"?>
<!-- Generator: Adobe Illustrator 27.0.0, SVG Export Plug-In . SVG Version: 6.00 Build 0)  -->
<svg version="1.1" id="Layer_1" xmlns="http://www.w3.org/2000/svg" xmlns:xlink="http://www.w3.org/1999/xlink" x="0px" y="0px"
	 viewBox="0 0 1000 1000" style="enable-background:new 0 0 1000 1000;" xml:space="preserve">
<style type="text/css">
	.st0{fill:#2B4F3F;}
	.st1{fill:#F3C464;}
</style>
<g id="layer1_2_" transform="translate(-328.281, -444.8)">
	<g id="g8062" transform="translate(-686.249, 135.642)">
		<path id="path7748" class="st0" d="M1537.2,379.2c-42,116.7-117.3,217.6-214.5,291.1v448.5c61.3,40.7,134.6,64.4,213.6,64.4
			c0.3,0,0.6,0,0.9,0c0.3,0,0.6,0,0.9,0c79,0,152.4-23.8,213.6-64.4V670.3C1654.5,596.8,1579.2,496,1537.2,379.2z"/>
		<path id="path7750" class="st1" d="M1347.1,863.3v62.4c41.5,59.7,110.5,98.8,188.7,98.8c80,0,150.4-40.9,191.5-103v-58.2h-19.7
			c-27.2,68.2-94,116.5-171.9,116.5c-77.9,0-144.7-48.3-171.9-116.5H1347.1z"/>
		<path id="path7752" class="st1" d="M1727.3,956.8c-46.1,54.3-114.8,88.9-191.5,88.9c-75.2,0-142.7-33.1-188.7-85.5v62.1
			c51.2,42.5,116.9,68.1,188.7,68.1c73.1,0,139.9-26.6,191.5-70.6V956.8z"/>
		<path id="path7754" class="st1" d="M1727.3,1045.2c-53.1,40.7-119.5,65-191.5,65c-70.8,0-136-23.4-188.7-62.8v54.5
			c54.9,33.8,119.5,53.4,188.7,53.4c70.3,0,136-20.2,191.5-55.1V1045.2z"/>
		<path id="path7756" class="st1" d="M1537.2,454.7c-45,90.8-110.3,170-190,231.3v58.8c75.1-52,139.8-118.2,190-194.7
			c50.2,76.5,114.8,142.6,190,194.7V686C1647.5,624.7,1582.2,545.5,1537.2,454.7z"/>
		<path id="path7758" class="st1" d="M1537.2,591c-51.8,71.4-116.2,133.1-190,181.8V826c71.8-43.6,135.9-98.6,190-162.4
			c54.1,63.8,118.2,118.8,190,162.4v-53.2C1653.4,724.1,1589,662.4,1537.2,591z"/>
		<path id="path7760" class="st1" d="M1537.2,700.6c-54.9,60.4-119,112.4-190,153.8V906c69.9-37.9,133.7-85.5,190-140.7
			c56.3,55.3,120.1,102.8,190,140.7v-51.6C1656.1,813,1592.1,761,1537.2,700.6z"/>
	</g>
</g>
</svg>
