<?xml version="1.0" encoding="utf-8"?>
<!-- Generator: Adobe Illustrator 26.2.1, SVG Export Plug-In . SVG Version: 6.00 Build 0)  -->
<svg version="1.1" xmlns="http://www.w3.org/2000/svg" xmlns:xlink="http://www.w3.org/1999/xlink" x="0px" y="0px"
	 viewBox="0 0 52.64 150.45" enable-background="new 0 0 52.64 150.45" xml:space="preserve">
<g id="Layer_98">
	<g>
		<linearGradient id="SVGID_1_" gradientUnits="userSpaceOnUse" x1="-25.767" y1="111.6964" x2="78.4076" y2="38.7526">
			<stop  offset="0" style="stop-color:#CFA716"/>
			<stop  offset="0.2849" style="stop-color:#9B7900"/>
			<stop  offset="0.671" style="stop-color:#CAA214"/>
			<stop  offset="1" style="stop-color:#9B7900"/>
		</linearGradient>
		<path fill="url(#SVGID_1_)" d="M2.85,0C1.28,0,0,1.28,0,2.85V147.6c0,1.57,1.28,2.85,2.85,2.85h46.94c1.57,0,2.85-1.28,2.85-2.85
			V2.85c0-1.57-1.28-2.85-2.85-2.85H2.85z"/>
		
			<linearGradient id="SVGID_00000179608777547194780030000011845036922078461624_" gradientUnits="userSpaceOnUse" x1="-15.4645" y1="60.0157" x2="68.1063" y2="90.433">
			<stop  offset="0" style="stop-color:#FFFFCA"/>
			<stop  offset="0.3327" style="stop-color:#FFD12A"/>
			<stop  offset="0.6532" style="stop-color:#A07A17"/>
			<stop  offset="0.8891" style="stop-color:#60400B"/>
			<stop  offset="1" style="stop-color:#472906"/>
		</linearGradient>
		<path fill="url(#SVGID_00000179608777547194780030000011845036922078461624_)" d="M47.64,145.95c-44.96,0-43.14,0.28-43.14-0.5
			C4.5-2.7,4.23,4.5,5,4.5c44.96,0,43.14-0.28,43.14,0.5C48.14,153.15,48.42,145.95,47.64,145.95z"/>
	</g>
</g>
</svg>
