<?xml version="1.0" encoding="utf-8"?>
<!-- Generator: Adobe Illustrator 26.2.1, SVG Export Plug-In . SVG Version: 6.00 Build 0)  -->
<svg version="1.1" xmlns="http://www.w3.org/2000/svg" xmlns:xlink="http://www.w3.org/1999/xlink" x="0px" y="0px"
	 viewBox="0 0 158.34 150.69" enable-background="new 0 0 158.34 150.69" xml:space="preserve">
<g id="Layer_92">
	<g>
		<linearGradient id="SVGID_1_" gradientUnits="userSpaceOnUse" x1="15.8185" y1="119.1773" x2="142.328" y2="30.5943">
			<stop  offset="0" style="stop-color:#CFA716"/>
			<stop  offset="0.2849" style="stop-color:#9B7900"/>
			<stop  offset="0.671" style="stop-color:#CAA214"/>
			<stop  offset="1" style="stop-color:#9B7900"/>
		</linearGradient>
		<path fill="url(#SVGID_1_)" d="M80.17,0C64.82,4.81,56.26,17.56,52.81,22.81c-8.52-3.02-22.15-3.73-31.54-1.74
			c-2.71,12.29,0.94,25.23,2.6,31.4C18.28,55.77,5.4,66.58,0,74.83c0.68,1.11,6.46,14.53,23.62,20.49
			c-1.42,6.53-2.47,24.28-0.17,34.76c14.26,4.99,36.34,1.48,44.01-2.02c-2.37,9.07-5.29,15.41-5.32,15.48
			c-2.09,6.5,11.99,8.46,23.84,6.32c1.68-0.3,2.97-1.68,3.13-3.39c0.57-5.82,0.71-12.7,0.42-19.07c7.97,3.93,32.56,8.75,45.37,2.67
			c2.31-10.48,0.97-26.87-0.45-33.4c15.82-7.21,24.05-21.85,23.88-22.49c-3.18-11.57-15.22-18.76-22.51-20.96
			c1.66-6.17,4.16-21.86-0.05-32c-10.24-2.33-21.73-1.42-30.22,1.59C102.1,17.56,93.63,5.71,80.17,0z"/>
		
			<linearGradient id="SVGID_00000003803149957719802010000015199666975210026414_" gradientUnits="userSpaceOnUse" x1="67.4342" y1="39.4438" x2="94.4905" y2="49.2915">
			<stop  offset="0" style="stop-color:#FFFFCA"/>
			<stop  offset="0.3327" style="stop-color:#FFD12A"/>
			<stop  offset="0.6532" style="stop-color:#A07A17"/>
			<stop  offset="0.8891" style="stop-color:#60400B"/>
			<stop  offset="1" style="stop-color:#472906"/>
		</linearGradient>
		<path fill="url(#SVGID_00000003803149957719802010000015199666975210026414_)" d="M80.17,4.44c14.95,8.46,22.95,21.14,22.95,21.14
			C92.65,39.31,83.88,70.9,80.17,83.72V4.44z"/>
		
			<linearGradient id="SVGID_00000095298067413122780670000000419651876622443673_" gradientUnits="userSpaceOnUse" x1="19.0515" y1="38.7492" x2="86.5821" y2="63.3284">
			<stop  offset="0" style="stop-color:#FFFFCA"/>
			<stop  offset="0.3327" style="stop-color:#FFD12A"/>
			<stop  offset="0.6532" style="stop-color:#A07A17"/>
			<stop  offset="0.8891" style="stop-color:#60400B"/>
			<stop  offset="1" style="stop-color:#472906"/>
		</linearGradient>
		<path fill="url(#SVGID_00000095298067413122780670000000419651876622443673_)" d="M52.44,27.28
			C62.78,41.82,74.02,67.06,78.98,84.2C64.51,58.76,24.59,23.53,24.59,23.53S41.32,22.84,52.44,27.28z"/>
		
			<linearGradient id="SVGID_00000026144946953748523010000009382054807883200900_" gradientUnits="userSpaceOnUse" x1="7.9363" y1="61.4137" x2="77.7096" y2="86.8091">
			<stop  offset="0" style="stop-color:#FFFFCA"/>
			<stop  offset="0.3327" style="stop-color:#FFD12A"/>
			<stop  offset="0.6532" style="stop-color:#A07A17"/>
			<stop  offset="0.8891" style="stop-color:#60400B"/>
			<stop  offset="1" style="stop-color:#472906"/>
		</linearGradient>
		<path fill="url(#SVGID_00000026144946953748523010000009382054807883200900_)" d="M3.26,74.26c6.41-9.8,25.09-19.95,25.09-19.95
			c22.67,10.04,42.77,25.98,49.55,31.97C57.64,76.48,23.98,73.03,3.26,74.26z"/>
		
			<linearGradient id="SVGID_00000043448381626944442940000010570080596042467768_" gradientUnits="userSpaceOnUse" x1="26.8485" y1="98.5524" x2="69.0036" y2="113.8956">
			<stop  offset="0" style="stop-color:#FFFFCA"/>
			<stop  offset="0.3327" style="stop-color:#FFD12A"/>
			<stop  offset="0.6532" style="stop-color:#A07A17"/>
			<stop  offset="0.8891" style="stop-color:#60400B"/>
			<stop  offset="1" style="stop-color:#472906"/>
		</linearGradient>
		<path fill="url(#SVGID_00000043448381626944442940000010570080596042467768_)" d="M25.81,127.83c-2.08-9.46,0.34-24.87,2.54-33.42
			c14.9-4.45,41.08-6.37,50.18-6.7C55.52,99.67,25.81,127.83,25.81,127.83z"/>
		
			<linearGradient id="SVGID_00000150076632937563055530000013814133604751708571_" gradientUnits="userSpaceOnUse" x1="69.5017" y1="116.0792" x2="87.6179" y2="122.6729">
			<stop  offset="0" style="stop-color:#FFFFCA"/>
			<stop  offset="0.3327" style="stop-color:#FFD12A"/>
			<stop  offset="0.6532" style="stop-color:#A07A17"/>
			<stop  offset="0.8891" style="stop-color:#60400B"/>
			<stop  offset="1" style="stop-color:#472906"/>
		</linearGradient>
		<path fill="url(#SVGID_00000150076632937563055530000013814133604751708571_)" d="M78.69,146.94c-4.98,0.81-8.07,0.14-11.79-1.93
			c-0.58-0.33-0.85-1.02-0.65-1.65c4.6-14.34,10.77-35.72,12.96-53.92C84.24,117.54,79.72,146.77,78.69,146.94z"/>
		
			<linearGradient id="SVGID_00000148651488253475119970000016676677765776559548_" gradientUnits="userSpaceOnUse" x1="77.672" y1="103.7821" x2="133.8598" y2="124.2328">
			<stop  offset="0" style="stop-color:#FFFFCA"/>
			<stop  offset="0.3327" style="stop-color:#FFD12A"/>
			<stop  offset="0.6532" style="stop-color:#A07A17"/>
			<stop  offset="0.8891" style="stop-color:#60400B"/>
			<stop  offset="1" style="stop-color:#472906"/>
		</linearGradient>
		<path fill="url(#SVGID_00000148651488253475119970000016676677765776559548_)" d="M89.15,122.49
			c-0.93-11.42-3.96-22.78-6.54-32.28c13.99,6.51,29.93,16.86,49.94,37.62C119.4,131.27,102.22,130.22,89.15,122.49z"/>
		
			<linearGradient id="SVGID_00000039855607986599149200000005940574043150129851_" gradientUnits="userSpaceOnUse" x1="88.7045" y1="69.9919" x2="148.7055" y2="91.8305">
			<stop  offset="0" style="stop-color:#FFFFCA"/>
			<stop  offset="0.3327" style="stop-color:#FFD12A"/>
			<stop  offset="0.6532" style="stop-color:#A07A17"/>
			<stop  offset="0.8891" style="stop-color:#60400B"/>
			<stop  offset="1" style="stop-color:#472906"/>
		</linearGradient>
		<path fill="url(#SVGID_00000039855607986599149200000005940574043150129851_)" d="M155.1,74.26c0,0-8.22,13.69-25.09,20.16
			c-15.5-4.62-39.45-6.57-47.7-6.85C87.72,82.68,119.96,72.15,155.1,74.26z"/>
		
			<linearGradient id="SVGID_00000048480969154142567650000000407580668831298432_" gradientUnits="userSpaceOnUse" x1="94.8093" y1="50.0048" x2="127.298" y2="61.8297">
			<stop  offset="0" style="stop-color:#FFFFCA"/>
			<stop  offset="0.3327" style="stop-color:#FFD12A"/>
			<stop  offset="0.6532" style="stop-color:#A07A17"/>
			<stop  offset="0.8891" style="stop-color:#60400B"/>
			<stop  offset="1" style="stop-color:#472906"/>
		</linearGradient>
		<path fill="url(#SVGID_00000048480969154142567650000000407580668831298432_)" d="M133.81,23.51c2.34,10.89-3.77,30.77-3.77,30.77
			C107.21,64.4,88.38,80.04,81.73,85.94C98.06,45.64,133.81,23.51,133.81,23.51z"/>
	</g>
</g>
</svg>
